<?xml version="1.0" encoding="iso-8859-1"?>
<!-- Generator: Adobe Illustrator 19.0.0, SVG Export Plug-In . SVG Version: 6.00 Build 0)  -->
<svg version="1.1" id="Layer_1" xmlns="http://www.w3.org/2000/svg" xmlns:xlink="http://www.w3.org/1999/xlink" x="0px" y="0px"
	 viewBox="0 0 512 512" style="enable-background:new 0 0 512 512;" xml:space="preserve">
<circle style="fill:#45B39C;" cx="256" cy="256" r="256"/>
<path style="opacity:0.1;enable-background:new    ;" d="M397.6,115.253c-3.414-3.68-8.267-5.92-13.653-5.92h-113.76
	c-10.347,0-18.72,8.373-18.72,18.72v104.694c0,10.346-8.373,18.72-18.72,18.72H128.053c-10.347,0-18.72,8.373-18.72,18.72v113.76
	c0,4.747,1.76,9.12,4.694,12.373l114.148,114.149C237.318,511.457,246.594,512,256,512c141.385,0,256-114.616,256-256
	c0-9.405-0.543-18.682-1.531-27.825L397.6,115.306V115.253z"/>
<path style="fill:#E1E6E9;" d="M383.945,109.333H270.2c-10.339,0-18.72,8.381-18.72,18.721v104.705
	c0,10.34-8.381,18.721-18.722,18.721H128.053c-10.339,0-18.72,8.381-18.72,18.721v113.745c0,10.34,8.381,18.721,18.72,18.721
	h255.892c10.34,0,18.722-8.382,18.722-18.721V128.054C402.667,117.715,394.285,109.333,383.945,109.333z"/>
<path style="fill:#EBF0F3;" d="M128.052,391.999c-4.438,0-8.052-3.615-8.052-8.055V270.2c0-4.441,3.615-8.052,8.052-8.052H232.76
	c16.203,0,29.385-13.182,29.385-29.387V128.054c0-4.44,3.615-8.054,8.052-8.054h113.75c4.438,0,8.052,3.615,8.052,8.054v255.891
	c0,4.441-3.615,8.055-8.052,8.055H128.052V391.999z"/>
<path style="fill:#E56353;" d="M321.891,263.425v-9.696c-12.131-1.239-23.018-6.066-32.667-14.476l9.693-11.556
	c7.435,6.465,15.098,10.318,22.974,11.556v-25.765c-10.006-2.392-17.329-5.531-21.974-9.428c-4.651-3.897-6.977-9.674-6.977-17.332
	c0-7.656,2.678-13.923,8.04-18.791c5.355-4.868,12.326-7.524,20.913-7.97v-6.641h8.504v6.776c9.736,0.707,18.945,4.029,27.619,9.959
	l-8.63,12.219c-5.846-4.161-12.175-6.729-18.989-7.703v24.967h0.396c10.182,2.392,17.663,5.623,22.446,9.696
	c4.777,4.073,7.172,9.981,7.172,17.728s-2.747,14.057-8.234,18.926c-5.494,4.868-12.753,7.524-21.779,7.967v9.564H321.891z
	 M312.531,177.699c-2.256,1.99-3.388,4.472-3.388,7.435c0,2.967,0.886,5.311,2.658,7.04c1.767,1.725,5.129,3.384,10.089,4.978
	v-22.974C317.911,174.534,314.788,175.706,312.531,177.699z M340.483,235.931c2.483-2.033,3.721-4.601,3.721-7.703
	c0-3.096-0.974-5.553-2.923-7.37c-1.949-1.814-5.575-3.52-10.886-5.114v23.907C334.644,239.209,338.006,237.971,340.483,235.931z"/>
<g>
	<path style="fill:#64798A;" d="M180.606,307.895v7.104h-23.87v11.842h21.438v6.719h-21.438v11.969h24.641v7.104h-32.193v-44.736
		h31.422V307.895z"/>
	<path style="fill:#64798A;" d="M224.575,307.895h7.552v44.736h-8.193l-25.344-32.641v32.641h-7.552v-44.736h7.552l25.984,33.408
		L224.575,307.895L224.575,307.895z"/>
	<path style="fill:#64798A;" d="M261.44,314.809v37.823h-7.552v-37.823H240.32v-6.914h34.687v6.914H261.44z"/>
	<path style="fill:#64798A;" d="M314.623,307.895v7.104h-23.87v11.842h21.437v6.719h-21.437v11.969h24.641v7.104h-32.193v-44.736
		h31.422V307.895z"/>
	<path style="fill:#64798A;" d="M360.768,322.424c0,7.383-3.224,12.031-9.667,13.953l11.714,16.255h-9.599l-10.688-15.04h-9.922
		v15.04h-7.552v-44.736h16.641c6.823,0,11.714,1.153,14.656,3.456C359.294,313.655,360.768,317.348,360.768,322.424z
		 M350.717,328.759c1.536-1.321,2.307-3.445,2.307-6.368c0-2.922-0.792-4.929-2.37-6.016c-1.578-1.089-4.396-1.633-8.448-1.633
		h-9.599v16h9.406C346.278,330.744,349.184,330.082,350.717,328.759z"/>
</g>
<g>
</g>
<g>
</g>
<g>
</g>
<g>
</g>
<g>
</g>
<g>
</g>
<g>
</g>
<g>
</g>
<g>
</g>
<g>
</g>
<g>
</g>
<g>
</g>
<g>
</g>
<g>
</g>
<g>
</g>
</svg>
