<?xml version="1.0" encoding="iso-8859-1"?>
<!-- Generator: Adobe Illustrator 19.0.0, SVG Export Plug-In . SVG Version: 6.00 Build 0)  -->
<svg version="1.1" id="Layer_1" xmlns="http://www.w3.org/2000/svg" xmlns:xlink="http://www.w3.org/1999/xlink" x="0px" y="0px"
	 viewBox="0 0 491.52 491.52" style="enable-background:new 0 0 491.52 491.52;" xml:space="preserve">
<path style="fill:#E1E6E9;" d="M460.15,0H269.555c-17.324,0-31.368,14.044-31.368,31.369v175.448c0,17.325-14.044,31.37-31.37,31.37
	H31.368C14.044,238.187,0,252.231,0,269.556V460.15c0,17.325,14.044,31.37,31.368,31.37H460.15c17.326,0,31.37-14.045,31.37-31.37
	V31.369C491.52,14.044,477.476,0,460.15,0z"/>
<path style="fill:#EBF0F3;" d="M31.366,473.645c-7.436,0-13.492-6.057-13.492-13.497V269.554c0-7.44,6.057-13.492,13.492-13.492
	h175.453c27.151,0,49.239-22.089,49.239-49.244V31.369c0-7.44,6.057-13.497,13.492-13.497h190.604
	c7.436,0,13.492,6.057,13.492,13.497v428.78c0,7.44-6.057,13.497-13.492,13.497H31.366z"/>
<path style="fill:#E56353;" d="M356.168,258.201v-16.246c-20.327-2.075-38.57-10.164-54.737-24.256l16.241-19.364
	c12.46,10.833,25.299,17.289,38.496,19.364v-43.172c-16.768-4.008-29.038-9.268-36.821-15.799
	c-7.794-6.53-11.691-16.209-11.691-29.043c0-12.828,4.487-23.329,13.471-31.486c8.974-8.157,20.654-12.607,35.041-13.355V73.716
	h14.25V85.07c16.315,1.185,31.745,6.751,46.279,16.689l-14.461,20.475c-9.795-6.972-20.401-11.275-31.818-12.907v41.835h0.664
	c17.062,4.008,29.596,9.421,37.611,16.246c8.005,6.825,12.017,16.725,12.017,29.707c0,12.981-4.603,23.556-13.797,31.713
	c-9.205,8.157-21.37,12.607-36.495,13.35v16.025H356.168z M340.485,114.555c-3.781,3.333-5.677,7.494-5.677,12.46
	c0,4.971,1.485,8.9,4.455,11.796c2.96,2.891,8.594,5.672,16.904,8.342v-38.496C349.501,109.252,344.267,111.217,340.485,114.555z
	 M387.323,212.132c4.16-3.407,6.235-7.71,6.235-12.907c0-5.187-1.633-9.305-4.898-12.349c-3.265-3.039-9.342-5.898-18.242-8.568
	v40.06C377.538,217.625,383.173,215.55,387.323,212.132z"/>
<g>
	<path style="fill:#64798A;" d="M119.428,332.717v11.904H79.431v19.841h35.921v11.258H79.431v20.055h41.289v11.904H66.777v-74.963
		H119.428z"/>
	<path style="fill:#64798A;" d="M193.104,332.717h12.655v74.963h-13.728l-42.467-54.694v54.694h-12.655v-74.963h12.655l43.54,55.981
		V332.717z"/>
	<path style="fill:#64798A;" d="M254.876,344.303v63.377h-12.655v-63.377h-22.735v-11.585h58.124v11.585H254.876z"/>
	<path style="fill:#64798A;" d="M343.99,332.717v11.904h-39.997v19.841h35.921v11.258h-35.921v20.055h41.289v11.904h-53.943v-74.963
		H343.99z"/>
	<path style="fill:#64798A;" d="M421.313,357.062c0,12.371-5.402,20.16-16.198,23.38l19.628,27.238h-16.084l-17.908-25.2h-16.625
		v25.2h-12.655v-74.963h27.884c11.433,0,19.628,1.933,24.559,5.791C418.844,342.37,421.313,348.557,421.313,357.062z
		 M404.47,367.679c2.575-2.212,3.866-5.773,3.866-10.669c0-4.896-1.327-8.26-3.971-10.08c-2.644-1.824-7.366-2.736-14.156-2.736
		h-16.084v26.81h15.762C397.034,371.004,401.904,369.896,404.47,367.679z"/>
</g>
<g>
</g>
<g>
</g>
<g>
</g>
<g>
</g>
<g>
</g>
<g>
</g>
<g>
</g>
<g>
</g>
<g>
</g>
<g>
</g>
<g>
</g>
<g>
</g>
<g>
</g>
<g>
</g>
<g>
</g>
</svg>
